/* XPM */
static char *ra686_hgk4h[] = {
/* columns rows colors chars-per-pixel */
"15 15 188 2 ",
"   c #000000",
".  c #010000",
"X  c #010100",
"o  c #000001",
"O  c #000101",
"+  c #010101",
"@  c #020100",
"#  c #030001",
"$  c #020101",
"%  c #030101",
"&  c #010102",
"*  c #020202",
"=  c #030202",
"-  c #020203",
";  c #040000",
":  c #040101",
">  c #060001",
",  c #070101",
"<  c #050201",
"1  c #060201",
"2  c #040102",
"3  c #040202",
"4  c #050202",
"5  c #040203",
"6  c #040303",
"7  c #060202",
"8  c #070202",
"9  c #050204",
"0  c #080001",
"q  c #080101",
"w  c #090101",
"e  c #0B0300",
"r  c #080102",
"t  c #080202",
"y  c #080203",
"u  c #090203",
"i  c #0B0202",
"p  c #0D0000",
"a  c #0D0202",
"s  c #0C0302",
"d  c #0C0203",
"f  c #0C0303",
"g  c #0F0202",
"h  c #0F0303",
"j  c #090305",
"k  c #0A0304",
"l  c #0A0305",
"z  c #0F0304",
"x  c #080404",
"c  c #080505",
"v  c #0A0404",
"b  c #0A0504",
"n  c #0B0504",
"m  c #0C0404",
"M  c #0D0404",
"N  c #0C0605",
"B  c #0E0607",
"V  c #0D060A",
"C  c #130001",
"Z  c #100302",
"A  c #100505",
"S  c #120404",
"D  c #110605",
"F  c #120604",
"G  c #150504",
"H  c #140705",
"J  c #170506",
"K  c #140606",
"L  c #180603",
"P  c #1F0403",
"I  c #190504",
"U  c #180604",
"Y  c #180605",
"T  c #110A07",
"R  c #150806",
"E  c #190806",
"W  c #1C0807",
"Q  c #1D0A06",
"!  c #1B0C05",
"~  c #170B0B",
"^  c #120C0A",
"/  c #1C0B09",
"(  c #1E0B0A",
")  c #180E0A",
"_  c #1A0B0F",
"`  c #1F0F0C",
"'  c #1B140E",
"]  c #1F0E14",
"[  c #1E1813",
"{  c #210705",
"}  c #210A05",
"|  c #200806",
" . c #220B07",
".. c #210D0A",
"X. c #20110D",
"o. c #22140D",
"O. c #29110A",
"+. c #28140F",
"@. c #371A0F",
"#. c #211215",
"$. c #231B16",
"%. c #2A1B13",
"&. c #2D1C17",
"*. c #2C1E17",
"=. c #29171A",
"-. c #2D1E1B",
";. c #3E230E",
":. c #2D2317",
">. c #322011",
",. c #312315",
"<. c #3A2515",
"1. c #35231B",
"2. c #372518",
"3. c #30261C",
"4. c #3D281C",
"5. c #3E291E",
"6. c #3E2B1F",
"7. c #352423",
"8. c #372D22",
"9. c #3B2921",
"0. c #3C3122",
"q. c #3D3125",
"w. c #3D3327",
"e. c #3D332A",
"r. c #452813",
"t. c #432817",
"y. c #43271A",
"u. c #472B19",
"i. c #472A1B",
"p. c #462D1A",
"a. c #402A1E",
"s. c #45291C",
"d. c #44291D",
"f. c #432C1F",
"g. c #472C1F",
"h. c #4A2E1D",
"j. c #482C1F",
"k. c #4A2F1F",
"l. c #62321D",
"z. c #432E22",
"x. c #473026",
"c. c #463126",
"v. c #433527",
"b. c #4B3123",
"n. c #4C3327",
"m. c #4F3327",
"M. c #4A352B",
"N. c #533724",
"B. c #543927",
"V. c #573926",
"C. c #593C25",
"Z. c #513429",
"A. c #503A29",
"S. c #543B2E",
"D. c #4E3F32",
"F. c #533F30",
"G. c #59402D",
"H. c #5D4330",
"J. c #5A4938",
"K. c #61442B",
"L. c #63462F",
"P. c #644830",
"I. c #644832",
"U. c #6F4A37",
"Y. c #614C39",
"T. c #65533C",
"R. c #68583C",
"E. c #5E5341",
"W. c #605442",
"Q. c #615847",
"!. c #6E654D",
"~. c #72644D",
"^. c #6C6251",
"/. c #6E6753",
"(. c #756C5A",
"). c #78705C",
"_. c #757260",
"`. c #8D7358",
"'. c #A17A5A",
"]. c #927A60",
"[. c #997F62",
"{. c #87806C",
"}. c #95957B",
"|. c #A39175",
" X c #B09172",
".X c #A3A08A",
"XX c #CDA988",
"oX c #C7B495",
/* pixels */
"7.-.*.+.` ( 9.(.E.D.z.2.6.5.c.",
"=.#.~ K W .._..X{.W.J.4.a.x.M.",
"] V m A C 1.Q.|.oX`.&.b.d.n.S.",
"_ j l x p ^.).[. XU.X.p.s.g.m.",
"J u 3 > E /.0.].XXl.v.A.y.k.Z.",
"Y r 6   e.}.:.F.'.@.w.T.j.h.B.",
"S d 5   3.!.,.Y.f.  q.R.t.i.N.",
"z a 7 + = e [ ~.'   o.>.;.u.V.",
"h g q $ *   $.8.. H y , ! r.C.",
"Z w < O 4   ^ c R { P | # <.K.",
"I s $   1 : $ 3 D G L M ; %.L.",
" .U %   X @ s $ , f 7 } 0 ) P.",
"O.F   X     w h i % 7 Q : T I.",
"/ 4 + + O   o 8 2 O t k   N H.",
"B 9 = & + + + & - & b n   v G."
};
